<?xml version="1.0" encoding="UTF-8" standalone="no"?>
<!-- Created with Inkscape (http://www.inkscape.org/) -->

<svg
   width="13.776856mm"
   height="2.9812295mm"
   viewBox="0 0 13.776856 2.9812295"
   version="1.1"
   id="svg1"
   xmlns:inkscape="http://www.inkscape.org/namespaces/inkscape"
   xmlns:sodipodi="http://sodipodi.sourceforge.net/DTD/sodipodi-0.dtd"
   xmlns="http://www.w3.org/2000/svg"
   xmlns:svg="http://www.w3.org/2000/svg">
  <sodipodi:namedview
     id="namedview1"
     pagecolor="#ffffff"
     bordercolor="#000000"
     borderopacity="0.25"
     inkscape:showpageshadow="2"
     inkscape:pageopacity="0.0"
     inkscape:pagecheckerboard="0"
     inkscape:deskcolor="#d1d1d1"
     inkscape:document-units="mm" />
  <defs
     id="defs1" />
  <g
     inkscape:label="Layer 1"
     inkscape:groupmode="layer"
     id="layer1"
     transform="translate(-40.380616,-113.03698)">
    <path
       style="font-size:3.175px;font-family:Arial;-inkscape-font-specification:Arial;stroke-width:0.264583"
       d="m 42.211516,115.10662 c 0.139526,0.0961 0.193048,0.14134 0.310871,0.18579 -0.02545,0.0628 -0.09466,0.18306 -0.110642,0.1812 -0.234151,-0.0944 -0.228654,-0.0988 -0.390918,-0.22592 -0.168465,0.094 -0.354501,0.14108 -0.558106,0.14108 -0.205672,0 -0.392224,-0.0496 -0.559655,-0.14883 -0.167432,-0.0992 -0.296623,-0.23875 -0.387574,-0.41858 -0.08992,-0.17983 -0.134875,-0.3824 -0.134875,-0.60771 0,-0.22427 0.04547,-0.4284 0.136426,-0.61237 0.09095,-0.18397 0.220141,-0.32401 0.387573,-0.42013 0.168465,-0.0961 0.356567,-0.14417 0.564306,-0.14417 0.209807,0 0.398943,0.0501 0.567408,0.15038 0.168465,0.0992 0.296622,0.23874 0.384472,0.41857 0.08888,0.1788 0.133326,0.38086 0.133326,0.60617 0,0.18707 -0.02842,0.35553 -0.08527,0.50539 -0.05685,0.14883 -0.142629,0.27854 -0.257348,0.38913 z m -0.591121,-0.47304 c 0.173632,0.0486 0.38763,0.21837 0.500285,0.31447 0.176733,-0.16124 0.123392,-0.41246 0.123392,-0.73595 0,-0.18397 -0.03152,-0.34468 -0.09457,-0.48214 -0.06201,-0.13746 -0.153481,-0.24391 -0.274402,-0.31936 -0.119889,-0.0765 -0.254765,-0.11472 -0.404626,-0.11472 -0.224276,0 -0.410311,0.077 -0.558106,0.23099 -0.147795,0.15296 -0.221692,0.38189 -0.221692,0.68678 0,0.29559 0.07286,0.52245 0.218592,0.68058 0.146761,0.15813 0.333829,0.23719 0.561206,0.23719 0.107487,0 0.208772,-0.0202 0.303857,-0.0605 -0.09405,-0.061 -0.193269,-0.10441 -0.297656,-0.13022 z m 2.381709,0.71643 v -0.24184 c -0.128157,0.18603 -0.302307,0.27905 -0.522449,0.27905 -0.09715,0 -0.188102,-0.0186 -0.272851,-0.0558 -0.08372,-0.0372 -0.146245,-0.0837 -0.187586,-0.13953 -0.04031,-0.0569 -0.06873,-0.12611 -0.08527,-0.20774 -0.01137,-0.0548 -0.01705,-0.14161 -0.01705,-0.26044 v -1.0201 h 0.279053 v 0.91313 c 0,0.14573 0.0057,0.24391 0.01705,0.29455 0.01757,0.0734 0.05477,0.13126 0.111621,0.17363 0.05685,0.0413 0.127127,0.062 0.21084,0.062 0.08372,0 0.162264,-0.0212 0.235644,-0.0636 0.07338,-0.0434 0.125057,-0.10179 0.15503,-0.17518 0.03101,-0.0744 0.04651,-0.1819 0.04651,-0.32246 v -0.88212 h 0.279052 v 1.64641 z m 0.68833,-1.95182 v -0.32091 h 0.279053 v 0.32091 z m 0,1.95182 v -1.64641 h 0.279053 v 1.64641 z m 0.556555,0 v -0.22634 l 1.047998,-1.20303 c -0.118855,0.006 -0.223758,0.009 -0.314709,0.009 h -0.671277 v -0.22635 h 1.345654 v 0.18449 l -0.891418,1.04489 -0.172083,0.19069 c 0.125057,-0.009 0.242363,-0.014 0.351917,-0.014 h 0.761194 v 0.24029 z m 1.728577,0 v -2.27273 h 0.279053 v 2.27273 z m 0.699182,0.63407 -0.03101,-0.262 c 0.06098,0.0165 0.114207,0.0248 0.15968,0.0248 0.06201,0 0.111623,-0.0103 0.148829,-0.031 0.03721,-0.0207 0.0677,-0.0496 0.09147,-0.0868 0.01757,-0.0279 0.046,-0.0972 0.08527,-0.20774 0.0052,-0.0155 0.01347,-0.0383 0.02481,-0.0682 l -0.624768,-1.64951 h 0.300756 l 0.342615,0.95343 c 0.04444,0.12093 0.08423,0.24805 0.119373,0.38137 0.03204,-0.12815 0.07028,-0.25321 0.114721,-0.37517 l 0.351917,-0.95963 h 0.279053 l -0.626319,1.67432 c -0.06718,0.18087 -0.119372,0.30541 -0.156579,0.37362 -0.04961,0.092 -0.106451,0.15917 -0.170533,0.20154 -0.06408,0.0434 -0.140561,0.0651 -0.229443,0.0651 -0.05375,0 -0.113691,-0.0114 -0.179834,-0.0341 z"
       id="text1"
       aria-label="Quizly"
       sodipodi:nodetypes="scccsscsscsccscssccsccscscscccccscccsccsccsccscccccccccccccccccsccccccsccccccccccsscccccccccccccssc" />
    <path
       style="font-size:3.175px;font-family:Arial;-inkscape-font-specification:Arial;stroke-width:0.153945"
       d="m 49.879882,115.46464 v -0.15868 l 0.547708,-0.001 v 0.50186 q -0.126123,0.10516 -0.260183,0.15867 -0.134061,0.0526 -0.275177,0.0526 -0.190507,0 -0.346618,-0.0849 -0.155227,-0.0858 -0.234605,-0.24724 -0.07938,-0.16144 -0.07938,-0.3607 0,-0.19742 0.0785,-0.36809 0.07938,-0.17159 0.227551,-0.25462 0.148172,-0.083 0.341325,-0.083 0.140235,0 0.253128,0.048 0.113775,0.0471 0.178159,0.13192 0.06438,0.0849 0.0979,0.2214 l -0.154346,0.0443 q -0.02911,-0.10332 -0.07232,-0.16237 -0.04322,-0.059 -0.123477,-0.0941 -0.08026,-0.036 -0.17816,-0.036 -0.117303,0 -0.202855,0.0378 -0.08555,0.0369 -0.13847,0.0978 -0.05204,0.0609 -0.08114,0.13377 -0.04939,0.12546 -0.04939,0.27214 0,0.18082 0.05909,0.30259 0.05997,0.12177 0.17375,0.18082 0.113775,0.059 0.241662,0.059 0.111129,0 0.216966,-0.0443 0.105838,-0.0452 0.16052,-0.0959 v -0.25185 z m 1.722503,0.0563 0.171103,0.0452 q -0.0538,0.22049 -0.194035,0.33673 -0.139352,0.11531 -0.341325,0.11531 -0.209029,0 -0.340443,-0.0886 -0.130533,-0.0895 -0.199328,-0.2583 -0.06791,-0.16883 -0.06791,-0.36256 0,-0.21125 0.07673,-0.36808 0.07761,-0.15775 0.219613,-0.23894 0.14288,-0.0821 0.313984,-0.0821 0.194035,0 0.326332,0.10333 0.132296,0.10332 0.184333,0.2906 l -0.168458,0.0415 q -0.04498,-0.1476 -0.130532,-0.21495 -0.08555,-0.0673 -0.215203,-0.0673 -0.149054,0 -0.2496,0.0747 -0.09966,0.0747 -0.140234,0.2011 -0.04057,0.12547 -0.04057,0.25923 0,0.17252 0.04763,0.30167 0.04851,0.12823 0.149936,0.19188 0.101428,0.0637 0.219613,0.0637 0.143762,0 0.243426,-0.0867 0.09966,-0.0867 0.134942,-0.25738 z m 0.323685,0.0397 0.161403,-0.0148 q 0.01146,0.10148 0.05292,0.16698 0.04233,0.0646 0.130533,0.10516 0.0882,0.0397 0.198444,0.0397 0.0979,0 0.172868,-0.0305 0.07497,-0.0305 0.111129,-0.083 0.03704,-0.0535 0.03704,-0.11624 0,-0.0637 -0.03528,-0.1107 -0.03528,-0.048 -0.116421,-0.0803 -0.05204,-0.0213 -0.230196,-0.0655 -0.17816,-0.0452 -0.2496,-0.0849 -0.09261,-0.0508 -0.13847,-0.12547 -0.04498,-0.0756 -0.04498,-0.16882 0,-0.1024 0.05557,-0.19096 0.05557,-0.0895 0.162284,-0.13561 0.106719,-0.0461 0.237252,-0.0461 0.143762,0 0.253128,0.0489 0.110247,0.048 0.169339,0.14207 0.05909,0.0941 0.0635,0.2131 l -0.164049,0.0129 q -0.01323,-0.12823 -0.08996,-0.19373 -0.07585,-0.0655 -0.224904,-0.0655 -0.155229,0 -0.226668,0.06 -0.07056,0.059 -0.07056,0.14299 0,0.0729 0.05027,0.11993 0.04939,0.0471 0.257537,0.0969 0.209029,0.0489 0.286643,0.0858 0.112893,0.0545 0.166694,0.13838 0.0538,0.083 0.0538,0.19188 0,0.10794 -0.05909,0.20388 -0.05909,0.095 -0.170222,0.14853 -0.110247,0.0526 -0.248718,0.0526 -0.175513,0 -0.29458,-0.0535 -0.118185,-0.0535 -0.186098,-0.16051 -0.06703,-0.10794 -0.07056,-0.24355 z m 1.266521,0.43451 v -1.35242 h 0.934896 v 0.1596 h -0.763793 v 0.41421 h 0.715284 v 0.15867 h -0.715284 v 0.46034 h 0.79378 v 0.1596 z"
       id="text2"
       aria-label="GCSE" />
  </g>
</svg>
